<svg xmlns="http://www.w3.org/2000/svg" viewBox="0 0 200 50">
  <defs>
    <linearGradient id="text-gradient" x1="0%" y1="0%" x2="100%" y2="0%">
      <stop offset="0%" style="stop-color:#4CAF50" />
      <stop offset="100%" style="stop-color:#2196F3" />
    </linearGradient>
  </defs>
  <g transform="translate(10, 35)">
    <text font-family="Arial, sans-serif" font-size="32" font-weight="bold" fill="url(#text-gradient)">
      Eco<tspan fill="#2196F3">Sort</tspan>
    </text>
    <g transform="translate(150, -25) scale(0.25)">
      <use href="#eco-symbol" />
    </g>
  </g>
  <defs>
    <g id="eco-symbol">
      <path fill="#4CAF50" d="M50 10c-22.1 0-40 17.9-40 40s17.9 40 40 40 40-17.9 40-40-17.9-40-40-40zm0 75c-19.3 0-35-15.7-35-35s15.7-35 35-35 35 15.7 35 35-15.7 35-35 35z"/>
      <path fill="#2196F3" d="M65 45.8l-7.1-7.1c-.4-.4-1-.4-1.4 0L50 45.2l-6.5-6.5c-.4-.4-1-.4-1.4 0l-7.1 7.1c-.4.4-.4 1 0 1.4l13.6 13.6c.4.4 1 .4 1.4 0L65 47.2c.4-.4.4-1 0-1.4z"/>
    </g>
  </defs>
</svg>