<svg xmlns="http://www.w3.org/2000/svg" viewBox="0 0 100 100">
  <defs>
    <linearGradient id="eco-gradient" x1="0%" y1="0%" x2="100%" y2="100%">
      <stop offset="0%" style="stop-color:#4CAF50" />
      <stop offset="100%" style="stop-color:#2196F3" />
    </linearGradient>
  </defs>
  <g fill="url(#eco-gradient)">
    <path d="M50 10c-22.1 0-40 17.9-40 40s17.9 40 40 40 40-17.9 40-40-17.9-40-40-40zm0 75c-19.3 0-35-15.7-35-35s15.7-35 35-35 35 15.7 35 35-15.7 35-35 35z"/>
    <path d="M65 45.8l-7.1-7.1c-.4-.4-1-.4-1.4 0L50 45.2l-6.5-6.5c-.4-.4-1-.4-1.4 0l-7.1 7.1c-.4.4-.4 1 0 1.4l13.6 13.6c.4.4 1 .4 1.4 0L65 47.2c.4-.4.4-1 0-1.4z"/>
    <path d="M50 25c-2.8 0-5 2.2-5 5s2.2 5 5 5 5-2.2 5-5-2.2-5-5-5zm0 7c-1.1 0-2-.9-2-2s.9-2 2-2 2 .9 2 2-.9 2-2 2z"/>
  </g>
</svg>